<?xml version="1.0" encoding="UTF-8"?><svg id="a" xmlns="http://www.w3.org/2000/svg" xmlns:xlink="http://www.w3.org/1999/xlink" viewBox="0 0 500 500"><defs><radialGradient id="b" cx="250" cy="250" fx="250" fy="250" r="250" gradientUnits="userSpaceOnUse"><stop offset="0" stop-color="#2e1065"/><stop offset="1" stop-color="#000"/></radialGradient><radialGradient id="c" cx="250" cy="250" fx="250" fy="250" r="139.721" gradientUnits="userSpaceOnUse"><stop offset="0" stop-color="#f5f3ff"/><stop offset="1" stop-color="#ddd6fe"/></radialGradient></defs><circle cx="250" cy="250" r="250" style="fill:url(#b);"/><path d="M92.4946,362.3511c0-6.2255,3.2269-9.4529,9.6807-9.6812h5.9445c11.7754,0,19.9277-.4511,24.4574-1.3588l50.9292-203.3022c-4.19-.4511-10.5884-.6794-19.1923-.6794h-6.6239c-6.2282,0-9.341-2.4333-9.341-7.3033,0-6.2255,3.2269-9.341,9.6807-9.341.9049,0,3.5084.1142,7.8131.3397,4.3014.2278,10.2115.3979,17.7299.5093,7.5155.1142,15.6789.1701,24.484.1701,11.7377,0,21.681-.056,29.8283-.1701,8.1473-.1114,13.9483-.2815,17.404-.5093,3.4524-.2255,5.5195-.3397,6.1989-.3397,6.2266,0,9.3975,2.3219,9.5116,6.9636,0,6.2282-3.397,9.4551-10.191,9.6807h-4.7547c-12.0032,0-19.1929.3691-21.5702,1.1039-2.3785.7381-4.021,2.9166-4.9254,6.5391l-24.8453,99.1701,137.4034-103.9254c-3.7373-1.131-8.0409-1.8952-12.9087-2.2931-4.87-.3957-8.1251-1.0457-9.7654-1.9534-1.6425-.9049-2.4627-2.8872-2.4627-5.9445,0-6.2255,3.2263-9.341,9.6812-9.341.9044,0,3.2263.1142,6.9636.3397,3.7362.2278,8.9719.3979,15.7105.5093,6.7353.1142,14.0669.1701,21.9947.1701,3.9612,0,8.717-.1119,14.2664-.3397,5.5461-.2255,9.1126-.3397,10.6998-.3397,4.1884,0,7.1044.4827,8.7469,1.4436,1.6403.9631,2.4627,2.691,2.4627,5.1803,0,6.4538-3.3959,9.6807-10.1899,9.6807-7.7017.2283-14.3816,1.218-20.0418,2.9725-5.6635,1.7567-9.9938,3.5666-12.9929,5.4347-3.0013,1.8686-7.0489,4.7852-12.1439,8.7469-49.3681,37.3655-75.58,57.0676-78.6378,59.1058,4.1884,8.8317,13.813,30.516,28.8741,65.0492,15.0577,34.5376,23.5497,53.6706,25.4759,57.4079,2.0382,4.4156,7.5854,6.6233,16.6448,6.6233h.3403c2.8284,0,4.9254.0587,6.2842.1696,1.3588.1142,2.6877.7381,3.9911,1.8686,1.3001,1.1338,1.9529,2.7764,1.9529,4.9254,0,6.4538-3.1709,9.6812-9.5105,9.6812-.6794,0-2.803-.1119-6.3695-.3391-3.5666-.2261-8.3811-.3957-14.437-.5098-6.0581-.1119-12.6526-.1696-19.7869-.1696-.4533,0-16.7024.3391-48.7441,1.0186-6.4549,0-9.6812-2.2078-9.6812-6.6233,0-4.1884,1.2735-6.9636,3.8215-8.3224,2.5469-1.3588,6.7641-2.1501,12.6526-2.3785,5.8863-.225,10.5867-.849,14.0979-1.8675l-43.1404-97.6606-32.6075,23.8312c-.2599.2283-.7747.5652-1.55,1.0141-2.3247,1.5788-3.9567,4.2355-4.891,7.9694-.9365,3.7339-3.3992,13.5637-7.3881,29.4859-3.6381,14.3284-6.7486,26.7372-9.3282,37.2275,4.4161.4544,11.1514.6794,20.2114.6794h6.6239c5.7749,0,8.6621,2.4361,8.6621,7.3039,0,6.2277-3.1155,9.341-9.3415,9.341-.9077,0-3.6248-.1119-8.1523-.3391-4.5303-.2261-10.8754-.3957-19.0333-.5098-8.1578-.1119-16.8859-.1696-26.1819-.1696-3.2912,0-20.2275.3391-50.8128,1.0186-6.4538,0-9.6807-2.3197-9.6807-6.9636Z" style="fill:url(#c);"/></svg>